<svg width="80" height="80" viewBox="0 0 80 80" fill="none" xmlns="http://www.w3.org/2000/svg">
<circle cx="40" cy="39.9995" r="30" fill="black"/>
<path fill-rule="evenodd" clip-rule="evenodd" d="M9.16219 31.423L1.51187 29.0681C0.527058 32.5425 0 36.2092 0 39.9991C0 62.0905 17.9086 79.9991 40 79.9991C62.0914 79.9991 80 62.0905 80 39.9991C80 18 62.2408 0.148877 40.2769 0L40.2768 8.00023C57.8225 8.14891 72 22.4183 72 39.9991C72 57.6722 57.6731 71.9991 40 71.9991C22.3269 71.9991 8 57.6722 8 39.9991C8 37.0285 8.40478 34.1524 9.16219 31.423Z" fill="#00EDE2"/>
<path d="M41.3711 46.4073H29.752L26.7285 52.9991H22.3164L35.7461 24.1534L48.7012 52.9991H44.2188L41.3711 46.4073ZM39.7012 42.5577L35.6758 33.3292L31.457 42.5577H39.7012ZM55.3105 35.878V52.9991H51.3555V35.878H55.3105ZM50.7578 28.7589C50.7578 28.0674 51.0098 27.4698 51.5137 26.9659C52.0176 26.462 52.6211 26.21 53.3242 26.21C54.0391 26.21 54.6484 26.462 55.1523 26.9659C55.6562 27.4581 55.9082 28.0616 55.9082 28.7764C55.9082 29.4913 55.6562 30.1006 55.1523 30.6046C54.6602 31.1085 54.0566 31.3604 53.3418 31.3604C52.627 31.3604 52.0176 31.1085 51.5137 30.6046C51.0098 30.1006 50.7578 29.4854 50.7578 28.7589Z" fill="#F3941A"/>
</svg>
