<svg width="80" height="80" viewBox="0 0 80 80" fill="none" xmlns="http://www.w3.org/2000/svg">
<circle cx="40" cy="39.9995" r="30" fill="black"/>
<path fill-rule="evenodd" clip-rule="evenodd" d="M10.8336 26.8148L3.14843 24.4174C1.12114 29.2061 0 34.4716 0 39.9991C0 62.0905 17.9086 79.9991 40 79.9991C62.0914 79.9991 80 62.0905 80 39.9991C80 18 62.2408 0.148876 40.2769 0L40.2768 8.00023C57.8225 8.14891 72 22.4183 72 39.9991C72 57.6722 57.6731 71.9991 40 71.9991C22.3269 71.9991 8 57.6722 8 39.9991C8 35.2988 9.01338 30.8352 10.8336 26.8148Z" fill="#00EDE2"/>
<path d="M29.8145 41.9776V52.9991H25.7188V25.8585H30.3594C32.6328 25.8585 34.3496 26.0167 35.5098 26.3331C36.6816 26.6495 37.7129 27.2471 38.6035 28.126C40.1621 29.6495 40.9414 31.5714 40.9414 33.8917C40.9414 36.376 40.1094 38.3448 38.4453 39.7979C36.7812 41.251 34.5371 41.9776 31.7129 41.9776H29.8145ZM29.8145 38.1807H31.3438C35.1055 38.1807 36.9863 36.7335 36.9863 33.8389C36.9863 31.0381 35.0469 29.6378 31.168 29.6378H29.8145V38.1807ZM54.3535 38.796L51.084 40.5362C50.5684 39.4815 49.9297 38.9542 49.168 38.9542C48.8047 38.9542 48.4941 39.0772 48.2363 39.3233C47.9785 39.5577 47.8496 39.8624 47.8496 40.2374C47.8496 40.8936 48.6113 41.544 50.1348 42.1885C52.2324 43.0909 53.6445 43.9229 54.3711 44.6846C55.0977 45.4464 55.4609 46.4717 55.4609 47.7608C55.4609 49.4131 54.8516 50.796 53.6328 51.9092C52.4492 52.9639 51.0195 53.4913 49.3438 53.4913C46.4727 53.4913 44.4395 52.0909 43.2441 49.2901L46.6191 47.7256C47.0879 48.546 47.4453 49.0674 47.6914 49.2901C48.1719 49.7354 48.7461 49.9581 49.4141 49.9581C50.75 49.9581 51.418 49.3487 51.418 48.1299C51.418 47.4268 50.9023 46.7706 49.8711 46.1612C49.4727 45.962 49.0742 45.7686 48.6758 45.5811C48.2773 45.3936 47.873 45.2003 47.4629 45.001C46.3145 44.4385 45.5059 43.876 45.0371 43.3135C44.4395 42.5987 44.1406 41.6788 44.1406 40.5538C44.1406 39.0655 44.6504 37.835 45.6699 36.8624C46.7129 35.8897 47.9785 35.4034 49.4668 35.4034C51.6582 35.4034 53.2871 36.5342 54.3535 38.796Z" fill="#419ED7"/>
</svg>
