<svg width="80" height="80" viewBox="0 0 80 80" fill="none" xmlns="http://www.w3.org/2000/svg">
<circle cx="40" cy="40" r="30" fill="black"/>
<path fill-rule="evenodd" clip-rule="evenodd" d="M6.53677e-06 40.0231L6.53539e-06 39.9769C2.17866e-06 39.9846 0 39.9923 0 40C0 40.0077 2.17912e-06 40.0154 6.53677e-06 40.0231ZM42 80C63.1622 78.9567 80 61.4471 80 40C80 18.5529 63.1622 1.04333 42 0L42 8.01241C58.7334 9.04622 72 22.9639 72 40C72 57.0361 58.7334 70.9538 42 71.9876L42 80Z" fill="#00EDE2"/>
<g clip-path="url(#clip0_116_1222)">
<path d="M40 39.5C40 35.9467 42.8805 33.0662 46.4338 33.0662C49.9871 33.0662 52.8677 35.9467 52.8677 39.5C52.8677 43.0533 49.9871 45.9338 46.4338 45.9338C42.8805 45.9338 40 43.0533 40 39.5Z" fill="#1ABCFE"/>
<path d="M27.1323 52.3677C27.1323 48.8144 30.0128 45.9338 33.5661 45.9338H40V52.3677C40 55.921 37.1195 58.8015 33.5661 58.8015C30.0128 58.8015 27.1323 55.921 27.1323 52.3677Z" fill="#0ACF83"/>
<path d="M40 20.1985V33.0662H46.4338C49.9872 33.0662 52.8677 30.1857 52.8677 26.6324C52.8677 23.0791 49.9872 20.1985 46.4338 20.1985H40Z" fill="#FF7262"/>
<path d="M27.1323 26.6324C27.1323 30.1857 30.0128 33.0662 33.5661 33.0662H40V20.1985H33.5661C30.0128 20.1985 27.1323 23.0791 27.1323 26.6324Z" fill="#F24E1E"/>
<path d="M27.1323 39.5C27.1323 43.0533 30.0128 45.9338 33.5661 45.9338H40V33.0662H33.5661C30.0128 33.0662 27.1323 35.9467 27.1323 39.5Z" fill="#A259FF"/>
</g>
<defs>
<clipPath id="clip0_116_1222">
<rect width="26" height="39" fill="white" transform="translate(27 20)"/>
</clipPath>
</defs>
</svg>
