<svg width="80" height="70" viewBox="0 0 80 70" fill="none" xmlns="http://www.w3.org/2000/svg">
<circle cx="40" cy="40" r="30" fill="black"/>
<path fill-rule="evenodd" clip-rule="evenodd" d="M62.9302 62.3206C68.5429 56.5555 72 48.6815 72 40C72 23.5644 59.6092 10.0227 43.6594 8.20695L43.6372 0.163138C64.0241 2.00071 80 19.1347 80 40C80 50.8637 75.6692 60.7158 68.6399 67.9242L62.9302 62.3206ZM0.000234376 40.1384L0.000232762 39.8621C7.76288e-05 39.908 0 39.954 0 40C0 40.0462 7.81671e-05 40.0923 0.000234376 40.1384ZM39.9965 1.49012e-07H40.0035C40.0023 4.47035e-08 40.0012 0 40 0C39.9988 0 39.9977 4.47035e-08 39.9965 1.49012e-07Z" fill="#00EDE2"/>
<path d="M30.3945 41.9785V53H26.2988V25.8594H30.9395C33.2129 25.8594 34.9297 26.0176 36.0898 26.334C37.2617 26.6504 38.293 27.248 39.1836 28.127C40.7422 29.6504 41.5215 31.5723 41.5215 33.8926C41.5215 36.377 40.6895 38.3457 39.0254 39.7988C37.3613 41.252 35.1172 41.9785 32.293 41.9785H30.3945ZM30.3945 38.1816H31.9238C35.6855 38.1816 37.5664 36.7344 37.5664 33.8398C37.5664 31.0391 35.627 29.6387 31.748 29.6387H30.3945V38.1816ZM44.9844 35.8789H48.9395V37.4082C49.666 36.6465 50.3105 36.125 50.873 35.8438C51.4473 35.5508 52.127 35.4043 52.9121 35.4043C53.9551 35.4043 55.0449 35.7441 56.1816 36.4238L54.3711 40.0449C53.6211 39.5059 52.8887 39.2363 52.1738 39.2363C50.0176 39.2363 48.9395 40.8652 48.9395 44.123V53H44.9844V35.8789Z" fill="#9296CB"/>
</svg>
