<svg width="80" height="80" viewBox="0 0 80 80" fill="none" xmlns="http://www.w3.org/2000/svg">
<circle cx="40" cy="39.8025" r="30" fill="black"/>
<path fill-rule="evenodd" clip-rule="evenodd" d="M72 39.901C72 57.6474 57.6545 72 40 72C25.7652 72 13.6816 62.6691 9.5345 49.7518L2.40574 53.6295C7.9976 69.0144 22.7191 80 40 80C62.0914 80 80 62.0471 80 39.901C80 19.1083 64.2133 2.01186 44 0V8.0505C59.7712 10.0243 72 23.5161 72 39.901ZM5.1728e-06 39.8804C1.7244e-06 39.8873 0 39.8941 0 39.901C0 39.9079 1.72456e-06 39.9147 5.17327e-06 39.9216L5.1728e-06 39.8804Z" fill="#00EDE2"/>
<path d="M27.0098 38.8145L19.5391 25.8594H24.1973L29.3828 35.0527L34.832 25.8594H39.5254L31.7031 38.8145L39.9121 53H35.3242L29.3125 42.6113L23.125 53H18.4844L27.0098 38.8145ZM55.4512 23.3105H59.4238V53H55.4512V51.207C53.8926 52.7305 52.1289 53.4922 50.1602 53.4922C47.8164 53.4922 45.8711 52.6367 44.3242 50.9258C42.7891 49.1797 42.0215 47 42.0215 44.3867C42.0215 41.832 42.7891 39.6992 44.3242 37.9883C45.8477 36.2656 47.7637 35.4043 50.0723 35.4043C52.0762 35.4043 53.8691 36.2246 55.4512 37.8652V23.3105ZM46.0645 44.3867C46.0645 46.0273 46.5039 47.3633 47.3828 48.3945C48.2852 49.4375 49.4219 49.959 50.793 49.959C52.2578 49.959 53.4414 49.4551 54.3438 48.4473C55.2461 47.4043 55.6973 46.0801 55.6973 44.4746C55.6973 42.8691 55.2461 41.5449 54.3438 40.502C53.4414 39.4824 52.2695 38.9727 50.8281 38.9727C49.4688 38.9727 48.332 39.4883 47.418 40.5195C46.5156 41.5625 46.0645 42.8516 46.0645 44.3867Z" fill="#BC72AF"/>
</svg>
