<?xml version="1.0" encoding="iso-8859-1"?>
<!-- Generator: Adobe Illustrator 23.0.3, SVG Export Plug-In . SVG Version: 6.00 Build 0)  -->
<svg version="1.1" id="&#x30EC;&#x30A4;&#x30E4;&#x30FC;_1"
	 xmlns="http://www.w3.org/2000/svg" xmlns:xlink="http://www.w3.org/1999/xlink" x="0px" y="0px" viewBox="0 0 580 140"
	 style="enable-background:new 0 0 580 140;" xml:space="preserve">
<g>
	<path style="fill:#333333;" d="M107.444,92.539c2.184-2.729,3.639-4.549,5.641-4.549c1.638,0,2.547,1.092,2.547,2.548
		c0,1.638-0.728,2.729-2.911,5.276c-5.641,7.279-20.744,25.839-30.388,25.839c-4.913,0-8.006-3.457-8.006-9.644
		c0-7.461,4.003-20.38,4.003-21.653c0-1.274-0.364-2.366-1.82-2.366c-5.823,0-20.744,19.47-23.473,26.566
		c-1.82,4.186-3.275,6.915-4.913,6.915c-1.82,0-4.549-2.366-4.549-4.367c0-2.184,8.188-22.928,8.188-28.386
		c0-1.456-0.91-2.912-2.911-2.912c-2.184,0-11.646,7.097-18.014,16.195c-3.275,4.549-6.369,10.917-8.371,15.103
		c-1.638,3.457-1.819,6.551-4.549,6.551c-1.638,0-3.821-1.638-3.821-4.004c0-2.547,8.188-24.2,13.829-41.669
		c1.274-4.003,3.275-6.005,4.731-6.005c2.184,0,4.367,0.729,4.367,3.458c0,3.093-5.277,15.284-6.005,17.832
		c5.641-7.824,15.285-15.103,20.198-15.103c3.275,0,8.734,1.819,8.734,6.55c0,4.367-1.274,9.28-1.456,10.918
		c6.005-8.37,15.831-15.467,21.653-15.467c2.912,0,6.551,2.548,6.551,6.369s-4.913,16.74-4.913,23.837
		c0,2.547,0.546,4.003,2.729,4.003C90.521,114.375,100.893,101.273,107.444,92.539z"/>
	<path style="fill:#333333;" d="M137.829,92.539c2.183-2.729,3.639-4.549,5.641-4.549c1.638,0,2.547,1.092,2.547,2.548
		c0,1.638-0.728,2.729-2.729,5.276c-8.734,10.372-25.11,25.839-34.208,25.839c-3.093,0-7.46-3.275-7.46-9.28
		c0-8.006,9.28-25.838,10.736-28.567c2.001-3.458,3.639-6.369,6.004-6.369c1.638,0,4.185,1.274,4.185,3.275
		c0,2.002-1.819,3.821-3.457,6.551c-4.003,6.914-9.462,19.651-9.462,23.655c0,1.638,0.91,3.639,3.275,3.639
		C118.177,114.557,131.278,101.273,137.829,92.539z"/>
	<path style="fill:#333333;" d="M204.789,92.539c2.002-2.729,3.64-4.549,5.459-4.549c1.82,0,2.547,1.092,2.547,2.548
		c0,1.638-0.728,2.729-2.729,5.276c-8.734,10.372-22.927,26.203-32.025,26.203c-7.278,0-10.372-4.186-10.372-11.282
		c0-4.73,2.729-13.465,2.729-15.284c0-1.82-0.364-3.275-2.729-3.275c-8.006,0-25.475,18.014-28.204,27.476
		c-1.092,3.821-3.093,5.096-5.277,5.096c-2.001,0-3.639-2.184-3.639-5.459c0-8.188,11.463-43.671,28.386-70.783
		c12.009-19.288,23.837-29.478,31.297-29.478c3.457,0,7.824,2.911,7.824,7.46c0,5.459-2.001,16.741-15.467,32.207
		c-14.375,16.559-25.292,21.836-31.661,28.022c-3.821,3.64-7.278,14.557-7.642,15.831c8.734-10.736,20.744-18.196,28.568-18.196
		c5.458,0,7.46,2.911,7.46,7.278c0,4.549-2.729,14.192-2.729,18.014c0,3.275,0.91,5.096,3.639,5.096
		C186.775,114.739,198.057,101.273,204.789,92.539z M165.85,50.87c-9.098,15.104-12.555,25.111-12.555,25.111
		s11.827-6.005,23.291-19.834c12.737-15.648,14.921-23.655,14.921-26.931c0-2.001-1.274-2.547-2.729-2.547
		C183.864,26.67,174.766,35.949,165.85,50.87z"/>
	<path style="fill:#333333;" d="M208.973,122.381c-5.095,0-10.19-3.821-10.19-11.646c0-16.922,14.193-33.116,26.93-33.116
		c6.732,0,10.554,4.185,10.554,10.554C236.267,100,225.167,122.381,208.973,122.381z M206.425,110.735
		c0,3.275,2.183,5.277,4.549,5.277c7.097,0,16.376-16.377,16.376-21.836c0-0.546-2.729-1.455-2.729-3.82
		c0-1.82,0.546-3.275,0.546-4.004c0-0.363-0.182-0.546-0.546-0.546C216.797,85.807,206.425,98.908,206.425,110.735z"/>
	<path style="fill:#333333;" d="M282.845,66.337c1.819,0,3.639-0.363,5.641-0.728c5.277-9.462,8.734-16.013,13.101-22.018
		c3.094-4.367,5.095-6.187,7.46-6.187c2.366,0,3.821,1.092,3.821,3.275s-0.364,3.64-3.821,6.368
		c-3.093,2.548-4.003,5.096-10.189,15.467c3.821-1.092,7.642-2.001,11.646-2.001c6.369,0,9.644,2.184,9.644,5.822
		c0,3.275-3.275,7.097-5.641,7.097c-1.638,0-2.001-0.546-2.001-1.638s0.364-1.819,0.364-2.729c0-1.455-2.365-1.819-5.095-1.819
		c-4.003,0-8.916,1.456-14.011,3.275c-9.826,17.65-19.833,39.667-19.833,49.129c0,2.366,1.092,3.275,1.092,4.913
		c0,1.456-1.274,3.64-3.821,3.64c-2.729,0-4.549-2.729-4.549-7.278c0-10.554,8.734-30.388,17.468-47.674
		c-1.273,0.182-2.547,0.182-3.821,0.182c-5.459,0-7.643-1.273-7.643-3.821c0-2.365,1.82-4.549,4.731-4.549
		C280.116,65.063,280.662,66.337,282.845,66.337z"/>
	<path style="fill:#333333;" d="M335.976,78.528c2.912,0,4.731,1.638,4.731,3.821c0,2.365-4.731,8.553-8.552,15.831
		c-2.184,4.003-3.275,7.642-3.275,10.371c0,2.366,0.728,4.367,2.365,4.367c6.551,0,17.468-11.646,24.201-20.38
		c2.001-2.729,3.639-4.549,5.458-4.549c1.82,0,2.548,1.092,2.548,2.548c0,1.638-0.728,2.729-2.729,5.276
		c-8.734,10.372-22.927,24.383-32.025,24.383c-5.641,0-8.552-4.003-8.552-8.552c0-2.002,0.364-4.549,0.364-6.187
		c0-1.092,0-1.638-0.364-1.638c-1.092,0-4.003,3.457-8.006,7.097c-8.552,7.46-14.193,11.1-18.378,11.1
		c-1.819,0-5.458-2.729-5.458-7.097c0-18.561,19.833-36.574,34.754-36.756c3.457,0,6.732,4.185,7.46,4.185
		C331.973,82.35,332.882,78.528,335.976,78.528z M296.672,111.1c0,1.092,0.728,2.184,2.184,2.184
		c3.093,0,26.748-20.562,26.748-23.655c0-0.909-3.093-0.363-3.093-2.365c0-1.092-0.546-2.184-2.001-2.184
		C312.685,85.079,296.672,102.184,296.672,111.1z"/>
	<path style="fill:#333333;" d="M421.313,92.539c2.184-2.729,3.639-4.549,5.641-4.549c1.637,0,2.547,1.092,2.547,2.548
		c0,1.638-0.728,2.729-2.912,5.276c-8.552,10.372-20.744,24.383-29.114,24.383c-9.462,0-10.554-9.825-10.554-17.649
		c0-3.64,1.274-8.007,1.274-12.374c0-1.638-0.364-2.911-2.184-2.911c-5.641,0-22.381,18.742-26.749,24.564
		c-3.639,5.095-4.549,11.464-7.096,11.464c-2.729,0-5.459-0.728-5.459-3.64c0-2.729,7.46-24.383,10.736-34.937
		c2.365-7.824,3.275-10.735,8.188-10.735c0.91,0,2.912,0.91,2.912,2.911c0,4.913-6.369,19.47-6.369,21.653
		c0,0.546,0.364,0.729,0.728,0.729c0.546,0,17.468-21.107,27.112-21.107c3.639,0,6.551,2.911,6.551,6.732
		c0,3.639-1.092,12.737-1.092,17.468c0,6.187,0,10.554,4.367,10.554C404.391,112.919,414.763,101.273,421.313,92.539z"/>
	<path style="fill:#333333;" d="M459.705,78.528c2.912,0,4.731,1.638,4.731,3.821c0,2.365-4.731,8.553-8.552,15.831
		c-2.184,4.003-3.275,7.642-3.275,10.371c0,2.366,0.728,4.367,2.365,4.367c6.551,0,17.468-11.646,24.202-20.38
		c2.001-2.729,3.639-4.549,5.458-4.549s2.548,1.092,2.548,2.548c0,1.638-0.729,2.729-2.729,5.276
		c-8.734,10.372-22.927,24.383-32.025,24.383c-5.641,0-8.552-4.003-8.552-8.552c0-2.002,0.364-4.549,0.364-6.187
		c0-1.092,0-1.638-0.364-1.638c-1.092,0-4.003,3.457-8.006,7.097c-8.552,7.46-14.193,11.1-18.378,11.1
		c-1.819,0-5.458-2.729-5.458-7.097c0-18.561,19.833-36.574,34.754-36.756c3.457,0,6.732,4.185,7.46,4.185
		C455.702,82.35,456.612,78.528,459.705,78.528z M420.402,111.1c0,1.092,0.728,2.184,2.184,2.184
		c3.093,0,26.748-20.562,26.748-23.655c0-0.909-3.093-0.363-3.093-2.365c0-1.092-0.546-2.184-2.001-2.184
		C436.414,85.079,420.402,102.184,420.402,111.1z"/>
	<path style="fill:#333333;" d="M534.307,24.486c0,14.921-15.648,40.941-43.853,61.685c-1.638,2.184-3.821,10.918-3.821,13.283
		c0,0.364,0,0.728,0.182,0.728c1.092,0,2.002-1.273,3.275-2.729c8.371-10.371,19.288-20.379,29.479-20.379
		c4.367,0,7.278,3.457,7.278,8.37c0,15.284-14.011,35.3-27.112,35.3c-6.187,0-8.006-2.911-8.006-5.822
		c0-1.819,1.637-3.64,4.185-3.64c3.093,0,3.275,1.092,4.913,1.092c7.278,0,17.65-15.467,17.65-24.2c0-1.456-1.092-2.912-3.275-2.912
		c-4.003,0-11.828,7.461-21.107,17.65c-3.64,3.821-7.824,10.19-7.824,13.102s-3.64,6.005-5.459,6.005
		c-1.82,0-3.457-0.91-3.457-6.732c0-23.291,9.279-48.766,20.379-69.328c11.1-20.743,19.288-28.749,29.66-28.749
		C531.396,17.208,534.307,20.847,534.307,24.486z M504.647,47.231c-7.46,14.738-11.282,26.202-12.191,29.113
		c21.289-14.921,34.754-42.033,34.754-49.312c0-1.819-0.909-2.729-2.729-2.729C521.569,24.304,513.018,30.854,504.647,47.231z"/>
	<path style="fill:#333333;" d="M553.048,109.644c2.911-2.184,4.185-4.003,6.187-4.003c1.638,0,2.547,1.092,2.547,2.548
		c0,1.638-1.092,2.911-3.639,4.913c-5.459,4.185-11.646,9.098-20.016,9.098c-5.641,0-12.01-5.641-12.01-11.464
		c0-1.819-0.546-2.365-0.546-4.185c0-1.638,1.456-3.64,3.094-4.367c7.46-17.286,19.651-24.201,28.932-24.201
		c3.457,0,7.46,2.911,7.46,6.369c0,9.279-15.83,19.833-27.112,22.381c-3.275,0.728-3.457,1.819-3.457,3.64
		c0,1.819,1.092,5.458,5.459,5.458C545.041,115.83,549.772,112.191,553.048,109.644z M536.853,101.092
		c6.369-0.182,20.744-10.372,20.744-14.193c0-1.455-0.728-1.819-2.184-1.819C549.772,85.079,539.582,96.725,536.853,101.092z"/>
	<path style="fill:#00EDE2;" d="M141.468,49.961c0,4.367-4.913,6.914-7.097,6.914s-3.093-3.821-3.093-6.368
		c0-2.548,2.547-5.641,6.187-5.641C139.285,44.866,141.468,46.321,141.468,49.961z"/>
</g>
</svg>
